HIERARCHY
ROOT Hips
{
	OFFSET 0.00000 0.00000 0.00000
	CHANNELS 6 Xposition Yposition Zposition Zrotation Yrotation Xrotation 
	JOINT LHipJoint
	{
		OFFSET 0 0 0
		CHANNELS 3 Zrotation Yrotation Xrotation
		JOINT LeftHip
		{
			OFFSET 1.41261 -1.82971 0.84908
			CHANNELS 3 Zrotation Yrotation Xrotation
			JOINT LeftKnee
			{
				OFFSET 2.52554 -6.93888 0.00000
				CHANNELS 3 Zrotation Yrotation Xrotation
				JOINT LeftAnkle
				{
					OFFSET 2.56654 -7.05152 0.00000
					CHANNELS 3 Zrotation Yrotation Xrotation
					JOINT LeftToe
					{
						OFFSET 0.21698 -0.59616 1.85369
						CHANNELS 3 Zrotation Yrotation Xrotation
						End Site
						{
							OFFSET 0.00000 -0.00000 0.97832
						}
					}
				}
			}
		}
	}
	JOINT RHipJoint
	{
		OFFSET 0 0 0
		CHANNELS 3 Zrotation Yrotation Xrotation
		JOINT RightHip
		{
			OFFSET -1.12808 -1.82971 0.84907
			CHANNELS 3 Zrotation Yrotation Xrotation
			JOINT RightKnee
			{
				OFFSET -2.53425 -6.96280 0.00000
				CHANNELS 3 Zrotation Yrotation Xrotation
				JOINT RightAnkle
				{
					OFFSET -2.58413 -7.09983 0.00000
					CHANNELS 3 Zrotation Yrotation Xrotation
					JOINT RightToe
					{
						OFFSET -0.26437 -0.72636 1.92241
						CHANNELS 3 Zrotation Yrotation Xrotation
						End Site
						{
							OFFSET -0.00000 -0.00000 1.02667
						}
					}
				}
			}
		}
	}
	JOINT lowerback
	{
		OFFSET 0 0 0
		CHANNELS 3 Zrotation Yrotation Xrotation
		JOINT Chest
		{
			OFFSET -0.02096 2.02288 -0.14752
			CHANNELS 3 Zrotation Yrotation Xrotation
			JOINT Chest2
			{
				OFFSET 0.03477 2.03136 -0.02358
				CHANNELS 3 Zrotation Yrotation Xrotation
				JOINT lowerneck
				{
					OFFSET 0 0 0
					CHANNELS 3 Zrotation Yrotation Xrotation
					JOINT Neck
					{
						OFFSET 0.00174 1.74359 0.19336
						CHANNELS 3 Zrotation Yrotation Xrotation
						JOINT Head
						{
							OFFSET -0.03054 1.76140 -0.17751
							CHANNELS 3 Zrotation Yrotation Xrotation
							End Site
							{
								OFFSET -0.00863 1.77239 -0.08120
							}
						}
					}
				}
				JOINT LeftCollar
				{
					OFFSET 0 0 0
					CHANNELS 3 Zrotation Yrotation Xrotation
					JOINT LeftShoulder
					{
						OFFSET 3.68685 1.32687 -0.67367
CHANNELS 3 Zrotation Xrotation Yrotation
						JOINT LeftElbow
						{
OFFSET 0 -4.764680 -0.000000
CHANNELS 3 Zrotation Xrotation Yrotation
							JOINT LeftWrist
							{
OFFSET 0 -3.527120 -0.000000
CHANNELS 3 Zrotation Xrotation Yrotation
								JOINT lhand
								{
									OFFSET 0 0 0
CHANNELS 3 Zrotation Xrotation Yrotation
									JOINT LFingers
									{
OFFSET 0 -0.859560 -0.000000
CHANNELS 3 Zrotation Xrotation Yrotation
										End Site
										{
OFFSET 0 -0.693000 -0.000000
										}
									}
								}
								JOINT LThumb
								{
OFFSET 0 0.000000 0.000000
CHANNELS 3 Zrotation Xrotation Yrotation
									End Site
									{
OFFSET 0 -0.703580 0.703580
									}
								}
							}
						}
					}
				}
				JOINT RightCollar
				{
					OFFSET 0 0 0
					CHANNELS 3 Zrotation Yrotation Xrotation
					JOINT RightShoulder
					{
						OFFSET -3.31304 1.28268 -0.97357
CHANNELS 3 Zrotation Xrotation Yrotation
						JOINT RightElbow
						{
OFFSET 0 -4.905770 -0.000000
CHANNELS 3 Zrotation Xrotation Yrotation
							JOINT RightWrist
							{
OFFSET 0 -3.426920 0.000000
CHANNELS 3 Zrotation Xrotation Yrotation
								JOINT rhand
								{
									OFFSET 0 0 0
CHANNELS 3 Zrotation Xrotation Yrotation
									JOINT RFingers
									{
OFFSET 0 -0.740960 -0.000000
CHANNELS 3 Zrotation Xrotation Yrotation
										End Site
										{
OFFSET 0 -0.597380 -0.000000
										}
									}
								}
								JOINT RThumb
								{
OFFSET 0 0.000000 0.000000
CHANNELS 3 Zrotation Xrotation Yrotation
									End Site
									{
OFFSET 0 -0.606500 0.606500
									}
								}
							}
						}
					}
				}
			}
		}
	}
}
MOTION
Frames: 5
Frame Time: 0.008333333333333333
0.141900 17.538200 -19.834600 0.089000 1.162100 5.110300 0.000000 0.000000 0.000000 -22.393800 -2.804600 -12.723900 2.699200 10.191300 29.598600 1.769600 -6.440400 -23.907100 1.451500 -7.615500 -21.552100 0.000000 0.000000 0.000000 22.237100 4.249700 -14.825400 -3.533800 -11.512700 34.029300 -1.936000 4.445600 -25.283300 -0.861000 -5.917100 16.544000 -2.820500 -0.444200 6.966000 1.874100 -0.745100 0.452700 3.602000 -0.315400 -3.378500 -1.852200 0.280200 -13.404400 0.052700 0.817300 22.736300 0.427600 0.227400 9.364700 -0.000000 0.000000 0.000000 -6.354900 6.161700 -10.208400 21.314300 -32.193400 6.216600 5.786400 1.700700 14.322900 0.000000 0.000000 0.000000 -7.125000 0.000000 0.000000 -14.713700 15.884700 -10.480400 -0.000000 0.000000 0.000000 1.048600 -3.360400 8.196200 -12.261100 -20.195100 -2.191600 -11.027900 9.615700 36.522200 0.000000 0.000000 0.000000 7.125000 0.000000 -0.000000 29.146200 64.732300 -14.490700
0.141217 17.536026 -19.826837 0.062606 1.191972 5.190724 0.000000 0.000000 0.000000 -22.343372 -2.768766 -12.823141 2.705410 10.202168 29.633937 1.785312 -6.546970 -24.009819 1.483545 -7.695055 -21.791820 0.000000 0.000000 0.000000 22.272375 4.322175 -14.892720 -3.545475 -11.529654 34.087864 -1.946992 4.388527 -25.366953 -0.863298 -5.924677 16.566047 -2.764048 -0.419545 7.075861 1.884844 -0.709701 0.492881 3.579146 -0.298694 -3.401851 -1.823570 0.288646 -13.409492 0.052886 0.822889 22.763439 0.423625 0.232368 9.375195 0.000000 0.000000 0.000000 -6.278388 6.255290 -10.630890 21.446270 -32.345367 6.287150 5.927375 1.437878 14.318118 0.000000 0.000000 0.000000 -7.125000 0.000000 0.000000 -14.619862 15.882526 -10.409540 0.000000 0.000000 0.000000 0.985751 -3.263270 8.472188 -12.381270 -20.373834 -2.233396 -10.961449 9.178864 36.587409 0.000000 0.000000 0.000000 7.125000 0.000000 0.000000 29.295994 64.769314 -14.596276
0.140413 17.531965 -19.818614 0.057393 1.218866 5.288601 0.000000 0.000000 0.000000 -22.314052 -2.731892 -12.944435 2.712250 10.214053 29.672639 1.800201 -6.666054 -24.105833 1.508837 -7.757664 -21.980559 0.000000 0.000000 0.000000 22.286662 4.400508 -14.952391 -3.559765 -11.550312 34.159281 -1.961882 4.332011 -25.476896 -0.865184 -5.930922 16.584220 -2.736789 -0.397165 7.163960 1.892489 -0.679313 0.529625 3.569751 -0.284191 -3.415834 -1.761559 0.300118 -13.411148 -0.006670 0.839202 22.781477 0.394693 0.238668 9.382278 0.000000 0.000000 0.000000 -6.210253 6.342296 -11.034208 21.571075 -32.488765 6.353995 6.055012 1.211463 14.337422 0.000000 0.000000 0.000000 -7.125000 0.000000 0.000000 -14.533600 15.857526 -10.351897 0.000000 0.000000 0.000000 0.932706 -3.200199 8.528618 -12.504709 -20.557094 -2.276547 -10.421872 8.846239 36.803984 0.000000 0.000000 0.000000 7.125000 0.000000 0.000000 30.134332 64.801099 -15.075995
0.139419 17.524947 -19.809671 0.085340 1.241099 5.413802 0.000000 0.000000 0.000000 -22.317779 -2.693387 -13.100253 2.720075 10.227529 29.716608 1.813802 -6.804731 -24.191350 1.523556 -7.793746 -22.089489 0.000000 0.000000 0.000000 22.268093 4.488012 -15.000086 -3.578148 -11.576768 34.250822 -1.982873 4.276366 -25.627993 -0.866426 -5.935083 16.596331 -2.755234 -0.378348 7.217990 1.895284 -0.656769 0.560987 3.581426 -0.273137 -3.415151 -1.647289 0.316327 -13.407421 -0.159755 0.872304 22.785265 0.326690 0.247052 9.384017 0.000000 0.000000 0.000000 -6.155229 6.418993 -11.407513 21.684662 -32.618748 6.415043 6.161768 1.042045 14.394433 0.000000 0.000000 0.000000 -7.125000 0.000000 0.000000 -14.459200 15.796788 -10.314945 0.000000 0.000000 0.000000 0.895010 -3.190449 8.241328 -12.633263 -20.747442 -2.321820 -9.141609 8.676759 37.257526 0.000000 0.000000 0.000000 7.125000 0.000000 0.000000 32.050597 64.824698 -16.141443
0.139055 17.519333 -19.799131 0.141851 1.266576 5.552026 0.000000 0.000000 0.000000 -22.353942 -2.680252 -13.249777 2.728336 10.241780 29.763191 1.824643 -6.919202 -24.259340 1.522491 -7.791243 -22.081789 0.000000 0.000000 0.000000 22.206000 4.538333 -15.105443 -3.594981 -11.600949 34.334664 -1.997667 4.225950 -25.736051 -0.855274 -5.897608 16.487696 -2.795949 -0.378267 7.251396 1.890139 -0.660757 0.593995 3.599686 -0.275348 -3.398878 -1.612708 0.282960 -13.544580 -0.247191 0.842805 22.882589 0.287880 0.225468 9.444966 0.000000 0.000000 0.000000 -6.102384 6.516316 -11.759224 21.819358 -32.772018 6.487856 6.207232 0.864590 14.461950 0.000000 0.000000 0.000000 -7.125000 0.000000 0.000000 -14.425323 15.728789 -10.311012 0.000000 0.000000 0.000000 0.888975 -3.168353 8.147741 -12.743807 -20.910532 -2.361139 -8.406777 8.605655 37.569989 0.000000 0.000000 0.000000 7.125000 0.000000 0.000000 33.219012 64.876765 -16.829552
